<svg width="40" height="35" viewBox="0 0 40 35" fill="none" xmlns="http://www.w3.org/2000/svg">
<path fill-rule="evenodd" clip-rule="evenodd" d="M28.7501 21.8901C28.4185 21.8901 28.1006 22.0054 27.8662 22.2105C27.6318 22.4156 27.5001 22.6938 27.5001 22.9839V26.906L27.1338 26.5856C26.8995 26.3804 26.5816 26.2652 26.2501 26.2651C25.9186 26.2652 25.6006 26.3804 25.3663 26.5856C25.1319 26.7907 25.0002 27.0688 25.0002 27.3589C25.0002 27.6489 25.1319 27.9271 25.3663 28.1322L27.8663 30.3197C27.8853 30.3337 27.9049 30.3473 27.9249 30.3603C27.9591 30.3869 27.9949 30.4119 28.0323 30.4351C28.0684 30.4575 28.1059 30.4781 28.1445 30.497C28.1872 30.5178 28.2312 30.5363 28.2763 30.5526C28.3186 30.5674 28.3618 30.5803 28.4057 30.5911C28.4491 30.6024 28.4931 30.6117 28.5376 30.6188C28.5868 30.6264 28.6366 30.6314 28.6865 30.6338C28.7076 30.6365 28.7288 30.6387 28.75 30.6404C28.7712 30.6387 28.7924 30.6365 28.8135 30.6338C28.8635 30.6314 28.9132 30.6264 28.9625 30.6188C29.0069 30.6117 29.051 30.6024 29.0943 30.5911C29.1382 30.5803 29.1814 30.5674 29.2237 30.5526C29.2688 30.5363 29.3129 30.5178 29.3555 30.497C29.3942 30.4781 29.4316 30.4575 29.4678 30.4351C29.5051 30.4119 29.5409 30.3869 29.5751 30.3603C29.5951 30.3473 29.6147 30.3337 29.6338 30.3197L32.1338 28.1322C32.3681 27.9271 32.4998 27.6489 32.4998 27.3589C32.4998 27.0688 32.3681 26.7907 32.1338 26.5856C31.8994 26.3805 31.5815 26.2653 31.25 26.2653C30.9185 26.2653 30.6006 26.3805 30.3662 26.5856L30.0001 26.906V22.9839C30.0001 22.6938 29.8683 22.4156 29.6339 22.2105C29.3995 22.0054 29.0816 21.8901 28.7501 21.8901Z" fill="white"/>
<path fill-rule="evenodd" clip-rule="evenodd" d="M15 1.09375C11.7022 1.09375 8.70131 1.7429 6.42822 2.86896C4.15514 3.99502 2.5 5.69972 2.5 7.76093V27.2348C2.5 29.2965 4.15514 31.004 6.42822 32.131C8.70131 33.2581 11.702 33.9062 15 33.9062C18.1826 33.9062 21.0811 33.3017 23.3203 32.2443C24.8144 33.2834 26.7016 33.9062 28.75 33.9062C33.5677 33.9062 37.5 30.4655 37.5 26.25C37.5 22.0345 33.5677 18.5938 28.75 18.5938C28.3253 18.5938 27.9089 18.6211 27.5 18.6728V7.76096C27.5 5.69975 25.8449 3.99505 23.5718 2.86899C21.2987 1.7429 18.2978 1.09375 15 1.09375ZM15 3.28125C17.9154 3.28125 20.5403 3.88134 22.3389 4.77234C24.1375 5.66335 25 6.74355 25 7.76093C25 8.77917 24.1375 9.86222 22.3389 10.7538C20.5403 11.6454 17.9152 12.2449 15 12.2449C12.0848 12.2449 9.45971 11.6454 7.66113 10.7538C5.86253 9.86222 5 8.77917 5 7.76093C5 6.74355 5.86252 5.66335 7.66113 4.77234C9.45972 3.88134 12.0846 3.28125 15 3.28125ZM5 11.8069C5.43777 12.1175 5.91574 12.4031 6.42822 12.6572C8.70132 13.7839 11.7021 14.4324 15 14.4324C18.2979 14.4324 21.2987 13.7839 23.5718 12.6572C24.0843 12.4031 24.5622 12.1175 25 11.8069V14.2529C25 15.2712 24.1375 16.3521 22.3389 17.2437C20.5403 18.1352 17.9152 18.7369 15 18.7369C12.0848 18.7369 9.45971 18.1352 7.66113 17.2437C5.86253 16.3521 5 15.2712 5 14.2529V11.8069ZM5 18.2968C5.43777 18.6071 5.91574 18.893 6.42822 19.147C8.70132 20.2738 11.7021 20.9244 15 20.9244C18.2979 20.9244 21.2987 20.2738 23.5718 19.147C24.0843 18.893 24.5622 18.6071 25 18.2968V19.335C22.6199 20.3295 20.8293 22.2392 20.2246 24.5367C18.7104 24.9692 16.9184 25.2268 15 25.2267C12.0847 25.2267 9.4597 24.627 7.66113 23.7357C5.86255 22.8443 5 21.7632 5 20.7449V18.2968ZM28.75 20.7812C32.2166 20.7812 35 23.2167 35 26.25C35 29.2833 32.2166 31.7188 28.75 31.7188C25.2834 31.7188 22.5 29.2833 22.5 26.25C22.5 26.016 22.5166 25.786 22.5489 25.56C22.5599 25.5121 22.5673 25.4635 22.5709 25.4147C22.9099 23.4582 24.4258 21.8516 26.4698 21.1551C26.5962 21.1338 26.7181 21.0957 26.8311 21.0419C27.4348 20.8732 28.0801 20.7812 28.75 20.7812ZM5 24.7888C5.43777 25.0991 5.91574 25.3851 6.42822 25.639C8.70133 26.7655 11.7021 27.4143 15 27.4142C16.7891 27.4142 18.4868 27.2199 20.0317 26.8652C20.1572 28.231 20.694 29.4978 21.5356 30.5695C19.7981 31.2636 17.5137 31.7188 15 31.7188C12.0848 31.7188 9.45972 31.1195 7.66113 30.2277C5.86252 29.3359 5 28.253 5 27.2348V24.7888Z" fill="white"/>
</svg>
