<svg width="31" height="31" viewBox="0 0 31 31" fill="none" xmlns="http://www.w3.org/2000/svg">
<path d="M16.531 1.34397L29.656 14.469C30.5747 15.3877 29.9243 16.9583 28.6249 16.9583H27.1666V25.7083C27.1666 26.8687 26.7057 27.9815 25.8852 28.8019C25.0647 29.6224 23.9519 30.0833 22.7916 30.0833H21.3333V19.875C21.3333 18.7591 20.907 17.6853 20.1414 16.8734C19.3758 16.0615 18.329 15.5728 17.2149 15.5073L16.9583 15.5H14.0416C12.8813 15.5 11.7685 15.9609 10.948 16.7814C10.1275 17.6019 9.66661 18.7147 9.66661 19.875V30.0833H8.20828C7.04796 30.0833 5.93516 29.6224 5.11469 28.8019C4.29421 27.9815 3.83328 26.8687 3.83328 25.7083V16.9583H2.37494C1.07703 16.9583 0.425153 15.3877 1.3439 14.469L14.4689 1.34397C14.7424 1.07058 15.1132 0.916992 15.4999 0.916992C15.8866 0.916992 16.2575 1.07058 16.531 1.34397ZM16.9583 18.4167C17.3451 18.4167 17.716 18.5703 17.9895 18.8438C18.263 19.1173 18.4166 19.4882 18.4166 19.875V30.0833H12.5833V19.875C12.5833 19.5178 12.7145 19.1731 12.9518 18.9061C13.1892 18.6392 13.5162 18.4687 13.871 18.4269L14.0416 18.4167H16.9583Z" fill="#34495E"/>
</svg>
