<svg width="35" height="35" viewBox="0 0 35 35" fill="none" xmlns="http://www.w3.org/2000/svg">
<g clip-path="url(#clip0_658_7)">
<rect width="35" height="35" fill="#34495E"/>
<path d="M18.531 3.34397L31.656 16.469C32.5747 17.3877 31.9243 18.9583 30.6249 18.9583H29.1666V27.7083C29.1666 28.8687 28.7057 29.9815 27.8852 30.8019C27.0647 31.6224 25.9519 32.0833 24.7916 32.0833H23.3333V21.875C23.3333 20.7591 22.907 19.6853 22.1414 18.8734C21.3758 18.0615 20.329 17.5728 19.2149 17.5073L18.9583 17.5H16.0416C14.8813 17.5 13.7685 17.9609 12.948 18.7814C12.1275 19.6019 11.6666 20.7147 11.6666 21.875V32.0833H10.2083C9.04796 32.0833 7.93516 31.6224 7.11469 30.8019C6.29421 29.9815 5.83328 28.8687 5.83328 27.7083V18.9583H4.37494C3.07703 18.9583 2.42515 17.3877 3.3439 16.469L16.4689 3.34397C16.7424 3.07058 17.1132 2.91699 17.4999 2.91699C17.8866 2.91699 18.2575 3.07058 18.531 3.34397ZM18.9583 20.4167C19.3451 20.4167 19.716 20.5703 19.9895 20.8438C20.263 21.1173 20.4166 21.4882 20.4166 21.875V32.0833H14.5833V21.875C14.5833 21.5178 14.7145 21.1731 14.9518 20.9061C15.1892 20.6392 15.5162 20.4687 15.871 20.4269L16.0416 20.4167H18.9583Z" fill="white"/>
</g>
<defs>
<clipPath id="clip0_658_7">
<rect width="35" height="35" fill="white"/>
</clipPath>
</defs>
</svg>
