<svg width="35" height="35" viewBox="0 0 35 35" fill="none" xmlns="http://www.w3.org/2000/svg">
<g clip-path="url(#clip0_663_230)">
<path d="M26.2453 6.08109C27.0995 6.38206 27.8392 6.9407 28.3624 7.67993C28.8856 8.41915 29.1665 9.30252 29.1663 10.2082V27.7082C29.1663 28.8685 28.7054 29.9813 27.8849 30.8018C27.0645 31.6222 25.9517 32.0832 24.7913 32.0832H10.208C9.04769 32.0832 7.93489 31.6222 7.11442 30.8018C6.29394 29.9813 5.83301 28.8685 5.83301 27.7082V10.2082C5.83285 9.30252 6.11376 8.41915 6.63696 7.67993C7.16016 6.9407 7.89988 6.38206 8.75405 6.08109C8.81798 7.58406 9.46008 9.00422 10.5462 10.045C11.6324 11.0858 13.0787 11.6667 14.583 11.6665H20.4163C21.8618 11.6666 23.2558 11.1301 24.3282 10.1609C25.4005 9.19176 26.0749 7.85896 26.2205 6.42088L26.2453 6.08109ZM13.1247 17.4998C12.7379 17.4998 12.367 17.6535 12.0935 17.927C11.82 18.2005 11.6663 18.5714 11.6663 18.9582V24.7915C11.6663 25.1783 11.82 25.5492 12.0935 25.8227C12.367 26.0962 12.7379 26.2498 13.1247 26.2498C13.5114 26.2498 13.8824 26.0962 14.1559 25.8227C14.4294 25.5492 14.583 25.1783 14.583 24.7915V18.9582C14.583 18.5714 14.4294 18.2005 14.1559 17.927C13.8824 17.6535 13.5114 17.4998 13.1247 17.4998ZM17.4997 21.8748C17.1129 21.8748 16.742 22.0285 16.4685 22.302C16.195 22.5755 16.0413 22.9464 16.0413 23.3332V24.7915C16.0413 25.1783 16.195 25.5492 16.4685 25.8227C16.742 26.0962 17.1129 26.2498 17.4997 26.2498L17.6703 26.2396C18.025 26.1978 18.3521 26.0273 18.5895 25.7604C18.8268 25.4935 18.958 25.1487 18.958 24.7915V23.3332C18.958 22.9464 18.8044 22.5755 18.5309 22.302C18.2574 22.0285 17.8864 21.8748 17.4997 21.8748ZM21.8747 20.4165C21.4879 20.4165 21.117 20.5701 20.8435 20.8436C20.57 21.1171 20.4163 21.4881 20.4163 21.8748V24.7915C20.4163 25.1783 20.57 25.5492 20.8435 25.8227C21.117 26.0962 21.4879 26.2498 21.8747 26.2498C22.2614 26.2498 22.6324 26.0962 22.9059 25.8227C23.1794 25.5492 23.333 25.1783 23.333 24.7915V21.8748C23.333 21.4881 23.1794 21.1171 22.9059 20.8436C22.6324 20.5701 22.2614 20.4165 21.8747 20.4165ZM20.4163 2.9165C21.1899 2.9165 21.9318 3.22379 22.4787 3.77078C23.0257 4.31776 23.333 5.05962 23.333 5.83317C23.333 6.60672 23.0257 7.34858 22.4787 7.89557C21.9318 8.44255 21.1899 8.74984 20.4163 8.74984H14.583C13.8095 8.74984 13.0676 8.44255 12.5206 7.89557C11.9736 7.34858 11.6663 6.60672 11.6663 5.83317C11.6663 5.05962 11.9736 4.31776 12.5206 3.77078C13.0676 3.22379 13.8095 2.9165 14.583 2.9165H20.4163Z" fill="black"/>
</g>
<defs>
<clipPath id="clip0_663_230">
<rect width="35" height="35" fill="white"/>
</clipPath>
</defs>
</svg>
