<svg width="35" height="35" viewBox="0 0 35 35" fill="none" xmlns="http://www.w3.org/2000/svg">
<g clip-path="url(#clip0_649_263)">
<path d="M26.2457 6.08109C27.0998 6.38206 27.8396 6.9407 28.3628 7.67993C28.886 8.41915 29.1669 9.30252 29.1667 10.2082V27.7082C29.1667 28.8685 28.7058 29.9813 27.8853 30.8018C27.0648 31.6222 25.952 32.0832 24.7917 32.0832H10.2084C9.04805 32.0832 7.93525 31.6222 7.11478 30.8018C6.29431 29.9813 5.83337 28.8685 5.83337 27.7082V10.2082C5.83322 9.30252 6.11412 8.41915 6.63732 7.67993C7.16053 6.9407 7.90024 6.38206 8.75442 6.08109C8.81835 7.58406 9.46045 9.00422 10.5466 10.045C11.6328 11.0858 13.079 11.6667 14.5834 11.6665H20.4167C21.8621 11.6666 23.2561 11.1301 24.3285 10.1609C25.4009 9.19176 26.0752 7.85896 26.2209 6.42088L26.2457 6.08109ZM13.125 17.4998C12.7383 17.4998 12.3673 17.6535 12.0938 17.927C11.8204 18.2005 11.6667 18.5714 11.6667 18.9582V24.7915C11.6667 25.1783 11.8204 25.5492 12.0938 25.8227C12.3673 26.0962 12.7383 26.2498 13.125 26.2498C13.5118 26.2498 13.8827 26.0962 14.1562 25.8227C14.4297 25.5492 14.5834 25.1783 14.5834 24.7915V18.9582C14.5834 18.5714 14.4297 18.2005 14.1562 17.927C13.8827 17.6535 13.5118 17.4998 13.125 17.4998ZM17.5 21.8748C17.1133 21.8748 16.7423 22.0285 16.4688 22.302C16.1954 22.5755 16.0417 22.9464 16.0417 23.3332V24.7915C16.0417 25.1783 16.1954 25.5492 16.4688 25.8227C16.7423 26.0962 17.1133 26.2498 17.5 26.2498L17.6707 26.2396C18.0254 26.1978 18.3525 26.0273 18.5898 25.7604C18.8272 25.4935 18.9583 25.1487 18.9584 24.7915V23.3332C18.9584 22.9464 18.8047 22.5755 18.5312 22.302C18.2577 22.0285 17.8868 21.8748 17.5 21.8748ZM21.875 20.4165C21.4883 20.4165 21.1173 20.5701 20.8438 20.8436C20.5704 21.1171 20.4167 21.4881 20.4167 21.8748V24.7915C20.4167 25.1783 20.5704 25.5492 20.8438 25.8227C21.1173 26.0962 21.4883 26.2498 21.875 26.2498C22.2618 26.2498 22.6327 26.0962 22.9062 25.8227C23.1797 25.5492 23.3334 25.1783 23.3334 24.7915V21.8748C23.3334 21.4881 23.1797 21.1171 22.9062 20.8436C22.6327 20.5701 22.2618 20.4165 21.875 20.4165ZM20.4167 2.9165C21.1903 2.9165 21.9321 3.22379 22.4791 3.77078C23.0261 4.31776 23.3334 5.05962 23.3334 5.83317C23.3334 6.60672 23.0261 7.34858 22.4791 7.89557C21.9321 8.44255 21.1903 8.74984 20.4167 8.74984H14.5834C13.8098 8.74984 13.068 8.44255 12.521 7.89557C11.974 7.34858 11.6667 6.60672 11.6667 5.83317C11.6667 5.05962 11.974 4.31776 12.521 3.77078C13.068 3.22379 13.8098 2.9165 14.5834 2.9165H20.4167Z" fill="white"/>
</g>
<defs>
<clipPath id="clip0_649_263">
<rect width="35" height="35" fill="white"/>
</clipPath>
</defs>
</svg>
